<svg width="32" height="32" viewBox="0 0 32 32" fill="none" xmlns="http://www.w3.org/2000/svg">
<rect width="32" height="32" rx="16" fill="white"/>
<g clip-path="url(#clip0_254_6182)">
<path d="M17.77 10.059L18.4652 9.36383C19.617 8.21206 21.4844 8.21206 22.6362 9.36383C23.7879 10.5156 23.7879 12.383 22.6362 13.5348L21.941 14.23M17.77 10.059C17.77 10.059 17.8569 11.5362 19.1604 12.8396C20.4638 14.1431 21.941 14.23 21.941 14.23M17.77 10.059L11.3791 16.4499C10.9462 16.8828 10.7298 17.0992 10.5437 17.3379C10.3241 17.6194 10.1359 17.924 9.98226 18.2463C9.85205 18.5195 9.75526 18.8099 9.56167 19.3906L8.74136 21.8516M21.941 14.23L15.5501 20.6209C15.1172 21.0538 14.9008 21.2702 14.6621 21.4563C14.3806 21.6759 14.076 21.8641 13.7537 22.0177C13.4805 22.1479 13.1901 22.2447 12.6094 22.4383L10.1484 23.2586M10.1484 23.2586L9.54688 23.4592C9.26108 23.5544 8.94599 23.48 8.73297 23.267C8.51995 23.054 8.44557 22.7389 8.54084 22.4531L8.74136 21.8516M10.1484 23.2586L8.74136 21.8516" stroke="#2A2A2A" stroke-width="1.5"/>
</g>
<defs>
<clipPath id="clip0_254_6182">
<rect width="18" height="18" fill="white" transform="translate(7 7)"/>
</clipPath>
</defs>
</svg>
