<svg width="18" height="18" viewBox="0 0 18 18" fill="none" xmlns="http://www.w3.org/2000/svg">
<path d="M2.18936 5.95456C2.02619 5.57384 1.58528 5.39747 1.20456 5.56064C0.823838 5.72381 0.647475 6.16472 0.810641 6.54544L2.18936 5.95456ZM11.6904 10.9965L11.4157 10.2986V10.2986L11.6904 10.9965ZM6.93825 11.4056C7.16415 11.0584 7.06584 10.5938 6.71865 10.3679C6.37146 10.142 5.90688 10.2403 5.68097 10.5875L6.93825 11.4056ZM4.62136 12.216C4.39545 12.5631 4.49377 13.0277 4.84096 13.2536C5.18815 13.4795 5.65273 13.3812 5.87864 13.034L4.62136 12.216ZM17.1894 6.54544C17.3525 6.16472 17.1762 5.72381 16.7954 5.56064C16.4147 5.39747 15.9738 5.57384 15.8106 5.95456L17.1894 6.54544ZM14.25 9.34663L13.7367 8.79978V8.79978L14.25 9.34663ZM14.8447 11.002C15.1376 11.2949 15.6124 11.2949 15.9053 11.002C16.1982 10.7091 16.1982 10.2342 15.9053 9.9413L14.8447 11.002ZM8.25 13.375C8.25 13.7892 8.58579 14.125 9 14.125C9.41421 14.125 9.75 13.7892 9.75 13.375H8.25ZM12.1214 13.034C12.3473 13.3812 12.8119 13.4795 13.159 13.2536C13.5062 13.0277 13.6045 12.5631 13.3786 12.216L12.1214 13.034ZM4.28033 9.87696C4.57322 9.58406 4.57322 9.10919 4.28033 8.8163C3.98744 8.5234 3.51256 8.5234 3.21967 8.8163L4.28033 9.87696ZM2.09467 9.9413C1.80178 10.2342 1.80178 10.7091 2.09467 11.002C2.38756 11.2949 2.86244 11.2949 3.15533 11.002L2.09467 9.9413ZM9 10.75C6.65111 10.75 4.96133 9.5821 3.83085 8.36466C3.26583 7.75618 2.85106 7.14534 2.57806 6.6867C2.44199 6.45809 2.3423 6.26927 2.27775 6.14018C2.24551 6.07569 2.22212 6.02628 2.20742 5.99446C2.20008 5.97856 2.19491 5.96707 2.19191 5.96031C2.19041 5.95693 2.18944 5.95474 2.18902 5.95376C2.18881 5.95328 2.18873 5.9531 2.18879 5.95323C2.18881 5.95329 2.18888 5.95344 2.18897 5.95366C2.18902 5.95377 2.18912 5.954 2.18914 5.95405C2.18925 5.9543 2.18936 5.95456 1.5 6.25C0.810641 6.54544 0.810772 6.54574 0.810911 6.54607C0.810969 6.5462 0.811118 6.54655 0.811234 6.54682C0.811467 6.54736 0.811735 6.54798 0.812039 6.54868C0.812645 6.55009 0.813393 6.55181 0.814283 6.55385C0.816061 6.55792 0.818407 6.56326 0.821321 6.56981C0.82715 6.58292 0.83526 6.60091 0.845676 6.62346C0.866502 6.66855 0.896581 6.73193 0.936113 6.811C1.01512 6.96901 1.13223 7.19035 1.28912 7.45393C1.60206 7.97966 2.07792 8.68132 2.73165 9.38534C4.03867 10.7929 6.09889 12.25 9 12.25V10.75ZM11.4157 10.2986C10.7088 10.5769 9.90672 10.75 9 10.75V12.25C10.1032 12.25 11.0912 12.0384 11.9651 11.6944L11.4157 10.2986ZM5.68097 10.5875L4.62136 12.216L5.87864 13.034L6.93825 11.4056L5.68097 10.5875ZM16.5 6.25C15.8106 5.95456 15.8107 5.95441 15.8108 5.95426C15.8108 5.95422 15.8108 5.95408 15.8109 5.954C15.811 5.95383 15.811 5.9537 15.8111 5.95358C15.8112 5.95336 15.8112 5.95323 15.8112 5.9532C15.8113 5.95313 15.8111 5.95346 15.8108 5.95417C15.8102 5.95559 15.8089 5.95853 15.8069 5.96296C15.803 5.9718 15.7963 5.98653 15.7869 6.00671C15.7681 6.04707 15.7383 6.10912 15.6974 6.18932C15.6155 6.34988 15.4895 6.58218 15.3174 6.85825C14.9721 7.41253 14.4489 8.13128 13.7367 8.79978L14.7633 9.89348C15.595 9.1128 16.1969 8.28324 16.5905 7.65151C16.788 7.33456 16.9349 7.06442 17.0337 6.8708C17.0831 6.77391 17.1206 6.69593 17.1464 6.64053C17.1593 6.61283 17.1693 6.59075 17.1765 6.57476C17.18 6.56676 17.1829 6.56028 17.1851 6.55537C17.1861 6.55292 17.187 6.55086 17.1877 6.5492C17.1881 6.54838 17.1884 6.54765 17.1887 6.54702C17.1888 6.5467 17.1889 6.54642 17.1891 6.54615C17.1891 6.54602 17.1892 6.54584 17.1892 6.54578C17.1893 6.54561 17.1894 6.54544 16.5 6.25ZM13.7367 8.79978C13.1059 9.39184 12.3352 9.93671 11.4157 10.2986L11.9651 11.6944C13.0968 11.249 14.0248 10.5866 14.7633 9.89348L13.7367 8.79978ZM13.7197 9.87696L14.8447 11.002L15.9053 9.9413L14.7803 8.8163L13.7197 9.87696ZM8.25 11.5V13.375H9.75V11.5H8.25ZM11.0618 11.4056L12.1214 13.034L13.3786 12.216L12.319 10.5875L11.0618 11.4056ZM3.21967 8.8163L2.09467 9.9413L3.15533 11.002L4.28033 9.87696L3.21967 8.8163Z" fill="#2A2A2A"/>
</svg>
