<svg width="16" height="17" viewBox="0 0 16 17" fill="none" xmlns="http://www.w3.org/2000/svg">
<path fill-rule="evenodd" clip-rule="evenodd" d="M2.9375 7.54096V6C2.9375 3.20406 5.20406 0.9375 8 0.9375C10.7959 0.9375 13.0625 3.20406 13.0625 6V7.54096C13.8986 7.6034 14.443 7.76104 14.841 8.15901C15.5 8.81802 15.5 9.87868 15.5 12C15.5 14.1213 15.5 15.182 14.841 15.841C14.182 16.5 13.1213 16.5 11 16.5H5C2.87868 16.5 1.81802 16.5 1.15901 15.841C0.5 15.182 0.5 14.1213 0.5 12C0.5 9.87868 0.5 8.81802 1.15901 8.15901C1.55698 7.76104 2.10143 7.6034 2.9375 7.54096ZM4.0625 6C4.0625 3.82538 5.82538 2.0625 8 2.0625C10.1746 2.0625 11.9375 3.82538 11.9375 6V7.50268C11.6502 7.5 11.3386 7.5 11 7.5H5C4.66136 7.5 4.34976 7.5 4.0625 7.50268V6ZM9.5 12C9.5 12.8284 8.82843 13.5 8 13.5C7.17157 13.5 6.5 12.8284 6.5 12C6.5 11.1716 7.17157 10.5 8 10.5C8.82843 10.5 9.5 11.1716 9.5 12Z" fill="#D0D0D0"/>
</svg>
