<svg width="33" height="21" viewBox="0 0 33 21" fill="none" xmlns="http://www.w3.org/2000/svg">
<path d="M20.9624 2.2627H12.0391V17.9867H20.9624V2.2627Z" fill="#FF5F00"/>
<path d="M12.6051 10.125C12.6037 8.61066 12.9537 7.11587 13.6285 5.75376C14.3033 4.39166 15.2854 3.19794 16.5002 2.263C14.9958 1.10346 13.189 0.382354 11.2864 0.182112C9.38379 -0.0181304 7.46211 0.310569 5.741 1.13064C4.01989 1.95071 2.5688 3.22906 1.55359 4.81959C0.538375 6.41011 0 8.24862 0 10.125C0 12.0014 0.538375 13.8399 1.55359 15.4304C2.5688 17.0209 4.01989 18.2993 5.741 19.1194C7.46211 19.9394 9.38379 20.2681 11.2864 20.0679C13.189 19.8676 14.9958 19.1465 16.5002 17.987C15.2854 17.0521 14.3034 15.8583 13.6285 14.4962C12.9537 13.1341 12.6037 11.6393 12.6051 10.125Z" fill="#EB001B"/>
<path d="M32.9997 10.125C32.9998 12.0013 32.4615 13.8399 31.4463 15.4304C30.4311 17.0209 28.9801 18.2993 27.259 19.1193C25.538 19.9394 23.6163 20.2681 21.7137 20.0679C19.8111 19.8676 18.0044 19.1465 16.5 17.987C17.7138 17.0511 18.695 15.8572 19.3697 14.4953C20.0445 13.1334 20.395 11.6391 20.395 10.125C20.395 8.6109 20.0445 7.11658 19.3697 5.75468C18.695 4.39279 17.7138 3.19889 16.5 2.263C18.0044 1.10345 19.8111 0.38235 21.7137 0.18211C23.6163 -0.0181298 25.538 0.310576 27.259 1.13066C28.9801 1.95073 30.4311 3.22909 31.4463 4.81962C32.4615 6.41014 32.9998 8.24865 32.9997 10.125Z" fill="#F79E1B"/>
<path d="M32.027 16.3217V15.9998H32.1594V15.9342H31.8223V15.9998H31.9547V16.3217H32.027ZM32.6815 16.3217V15.9336H32.5782L32.4593 16.2006L32.3404 15.9336H32.237V16.3217H32.31V16.029L32.4215 16.2814H32.4972L32.6086 16.0283V16.3217H32.6815Z" fill="#F79E1B"/>
</svg>
