<svg width="24" height="24" viewBox="0 0 24 24" fill="none" xmlns="http://www.w3.org/2000/svg">
<path d="M5 6C5 5.44772 5.44772 5 6 5H9C9.55228 5 10 5.44772 10 6V18C10 18.5523 9.55228 19 9 19H6C5.44772 19 5 18.5523 5 18V6Z" stroke="#2A2A2A" stroke-width="2" stroke-linecap="round" stroke-linejoin="round"/>
<path d="M14 6C14 5.44772 14.4477 5 15 5H18C18.5523 5 19 5.44772 19 6V18C19 18.5523 18.5523 19 18 19H15C14.4477 19 14 18.5523 14 18V6Z" stroke="#2A2A2A" stroke-width="2" stroke-linecap="round" stroke-linejoin="round"/>
</svg>
