<svg width="35" height="12" viewBox="0 0 35 12" fill="none" xmlns="http://www.w3.org/2000/svg">
<path d="M17.3297 0.99504L14.9914 10.99H12.1631L14.5016 0.99504H17.3297ZM29.2283 7.4489L30.7168 3.6956L31.5734 7.4489H29.2283ZM32.3848 10.99H35L32.7153 0.99504H30.303C29.7594 0.99504 29.301 1.28324 29.0982 1.72767L24.8546 10.99H27.8248L28.4144 9.4973H32.0423L32.3848 10.99ZM25.0019 7.72698C25.0142 5.08915 21.0135 4.94303 21.0403 3.76439C21.0489 3.40627 21.4226 3.02478 22.2394 2.92722C22.6444 2.87956 23.7619 2.8409 25.0287 3.37458L25.5241 1.25424C24.8438 1.02921 23.9682 0.8125 22.8787 0.8125C20.0828 0.8125 18.116 2.17031 18.1003 4.1162C18.0824 5.55516 19.5053 6.35748 20.5751 6.83676C21.6781 7.32661 22.0476 7.64066 22.0422 8.07835C22.0346 8.74894 21.1627 9.0459 20.3508 9.05714C18.9282 9.07737 18.1035 8.70555 17.4463 8.42545L16.9329 10.6166C17.5948 10.8936 18.8143 11.1345 20.0772 11.1469C23.0496 11.1469 24.993 9.80506 25.0019 7.72698ZM13.2885 0.99504L8.70605 10.99H5.71691L3.46172 3.01332C3.32501 2.5228 3.20576 2.34251 2.78998 2.13524C2.10988 1.79759 0.9872 1.48174 0 1.28526L0.0668796 0.99504H4.8792C5.49218 0.99504 6.04368 1.36799 6.18408 2.01362L7.37536 7.7978L10.3173 0.99504H13.2885Z" fill="#1434CB"/>
</svg>
